<svg id="Layer_1" data-name="Layer 1" xmlns="http://www.w3.org/2000/svg" viewBox="0 0 1200 1200"><defs><style>.cls-1{fill:#f78f2a;}.cls-2{fill:#fff;}</style></defs><path class="cls-1" d="M80.55,366.26c3.6-.37,7.21-.51,10.82-.53,35-.13,69.66,13.23,100.9,27.82,39.4,18.41,76.53,41.58,112.31,66.19s70.2,51,103.79,78.42q38.4,31.37,75.23,64.57,4.89,4.41,9.77,8.86c1.15,1,2.3,2.09,3.45,3.15,1.46-.58,2.93-1.13,4.4-1.68A300,300,0,0,1,597,594.93a323.23,323.23,0,0,1,46.92,3.86,282.25,282.25,0,0,1,54.85,14.27c1.48.54,2.93,1.1,4.4,1.67l3.42-3.14q6.4-5.82,12.86-11.62,37.83-33.94,77.3-66c33.88-27.49,68.69-53.9,104.79-78.43,35.7-24.25,72.82-47,112.2-64.75,30.89-14,65.29-26.37,99.69-25a98.3,98.3,0,0,1,10.44,1l1.73.29C1033.14,169.5,832.58,32.59,600,32.59S166.86,169.49,74.41,367.09l.87-.14C77,366.66,78.79,366.44,80.55,366.26Z"/><path class="cls-2" d="M1180,612.59a580.94,580.94,0,0,0-16.73-138.68c-.56,22-4.65,44.07-10.83,65.16-16,54.73-46.11,104.78-79.66,150.45-15.88,21.61-32.19,42.21-51.47,60.77-28.66,27.61-60.42,52-93.43,74.15q-34.36,23.09-70.77,42.9-2.42,1.32-4.85,2.62-.57,2.73-1.21,5.44c-.39,1.68-.8,3.35-1.21,5-8.22,33.17-23.56,64.36-44,91.69-25.15,33.61-58,60.46-94.28,81.23-1.23.7-2.46,1.4-3.7,2.09l2.76,3.25a500,500,0,0,1,51,71.81,205,205,0,0,1,14.18,28.93c.69,1.77,1.34,3.58,1.94,5.4C1011.09,1089.77,1180,870.92,1180,612.59Z"/><path class="cls-2" d="M448.57,1128.66c11.33-19.42,24.51-37.77,38.35-55.47q4.33-5.54,8.76-11,1.36-1.68,2.75-3.34l-3.85-2.08c-34.53-18.91-66-43.12-91.5-73.42a259.15,259.15,0,0,1-50.68-94.48c-1.28-4.45-2.48-9-3.54-13.49-.42-1.82-.83-3.63-1.2-5.45l-4.78-2.6a914.54,914.54,0,0,1-78-47.78c-31.52-21.61-61.82-45.36-89.16-72.11C154.85,727,137.23,703.73,120.28,680c-32-44.9-60.19-94.18-74.68-147.74a247.76,247.76,0,0,1-8.87-58.31A580.79,580.79,0,0,0,20,612.59C20,874,192.91,1094.93,430.57,1167.41c.89-2.9,1.9-5.76,3-8.57A212.1,212.1,0,0,1,448.57,1128.66Z"/><path class="cls-2" d="M594.86,1009.78c.72.09,1.46.16,2.2.21s1.47-.12,2.19-.21C621.57,1007.23,633.7,989,633.7,989c-1.09-34.16-25.14-40.35-34.45-41.47-.87-.1-1.61-.16-2.19-.19s-1.32.09-2.2.19c-9.3,1.12-33.35,7.31-34.44,41.47C560.42,989,572.55,1007.23,594.86,1009.78Z"/></svg>